<?xml version="1.0" encoding="UTF-8" standalone="no"?>

<svg
    xmlns:dc="http://purl.org/dc/elements/1.1/"
    xmlns:cc="http://creativecommons.org/ns#"
    xmlns:rdf="http://www.w3.org/1999/02/22-rdf-syntax-ns#"
    xmlns:svg="http://www.w3.org/2000/svg"
    xmlns="http://www.w3.org/2000/svg"
    xmlns:sodipodi="http://sodipodi.sourceforge.net/DTD/sodipodi-0.dtd"
    xmlns:inkscape="http://www.inkscape.org/namespaces/inkscape"
    version="1.1"
    x="0px"
    y="0px"
    viewBox="0 0 416.04178 102.1047"
    enable-background="new 0 0 431.5 117.5"
    xml:space="preserve"
    id="svg33"
    sodipodi:docname="ros-logo-white_better.svg"
    width="416.04178"
    height="102.1047"
    inkscape:version="0.92.5 (2060ec1f9f, 2020-04-08)">
  <metadata id="metadata39">
    <rdf:RDF>
      <cc:Work rdf:about="">
        <dc:format>image/svg+xml</dc:format>
        <dc:type rdf:resource="http://purl.org/dc/dcmitype/StillImage" />
        <dc:title></dc:title>
      </cc:Work>
    </rdf:RDF>
  </metadata>
  <defs id="defs37" />
  <sodipodi:namedview
      pagecolor="#ffffff"
      bordercolor="#666666"
      borderopacity="1"
      objecttolerance="10"
      gridtolerance="10"
      guidetolerance="10"
      inkscape:pageopacity="0"
      inkscape:pageshadow="2"
      inkscape:window-width="1756"
      inkscape:window-height="874"
      id="namedview35"
      showgrid="false"
      inkscape:pagecheckerboard="true"
      fit-margin-top="0"
      fit-margin-left="0"
      fit-margin-right="0"
      fit-margin-bottom="0"
      inkscape:zoom="2.2491671"
      inkscape:cx="208.29178"
      inkscape:cy="52.261814"
      inkscape:window-x="72"
      inkscape:window-y="27"
      inkscape:window-maximized="0"
      inkscape:current-layer="svg33" />
  <g
      id="Logo"
      transform="translate(-7.4582204,-8.9071156)">
    <g
        id="g39878"
        transform="matrix(0.55396467,0,0,0.57246732,56.086901,77.489273)">
      <path
          id="path39880"
          d="m -48.357,-97.8 c 0,10.887 -8.827,19.713 -19.714,19.713 -10.886,0 -19.712,-8.826 -19.712,-19.713 0,-10.885 8.827,-19.713 19.712,-19.713 10.887,0 19.714,8.828 19.714,19.713 z"
          inkscape:connector-curvature="0"
          style="fill:#ffffff" />
      <path
          id="path39882"
          d="m -48.357,-30.621 c 0,10.887 -8.827,19.713 -19.714,19.713 -10.886,0 -19.712,-8.826 -19.712,-19.713 0,-10.887 8.827,-19.713 19.712,-19.713 10.887,0 19.714,8.826 19.714,19.713 z"
          inkscape:connector-curvature="0"
          style="fill:#ffffff" />
      <path
          id="path39884"
          d="m -48.357,36.559 c 0,10.885 -8.827,19.713 -19.714,19.713 -10.886,0 -19.712,-8.828 -19.712,-19.713 0,-10.885 8.827,-19.713 19.712,-19.713 10.887,0 19.714,8.827 19.714,19.713 z"
          inkscape:connector-curvature="0"
          style="fill:#ffffff" />
      <path
          id="path39886"
          d="m 20.432,-30.621 c 0,10.887 -8.827,19.713 -19.714,19.713 -10.886,0 -19.712,-8.826 -19.712,-19.713 0,-10.887 8.827,-19.713 19.712,-19.713 10.887,0 19.714,8.826 19.714,19.713 z"
          inkscape:connector-curvature="0"
          style="fill:#ffffff" />
      <path
          id="path39888"
          d="m 20.432,-97.8 c 0,10.887 -8.827,19.713 -19.714,19.713 -10.886,0 -19.712,-8.826 -19.712,-19.713 0,-10.885 8.827,-19.713 19.712,-19.713 10.887,0 19.714,8.828 19.714,19.713 z"
          inkscape:connector-curvature="0"
          style="fill:#ffffff" />
      <path
          id="path39890"
          d="m 89.22,-30.621 c 0,10.887 -8.827,19.713 -19.714,19.713 -10.886,0 -19.712,-8.826 -19.712,-19.713 0,-10.887 8.827,-19.713 19.712,-19.713 10.888,0 19.714,8.826 19.714,19.713 z"
          inkscape:connector-curvature="0"
          style="fill:#ffffff" />
      <path
          id="path39892"
          d="m 89.22,-97.8 c 0,10.887 -8.827,19.713 -19.714,19.713 -10.886,0 -19.712,-8.826 -19.712,-19.713 0,-10.885 8.827,-19.713 19.712,-19.713 10.888,0 19.714,8.828 19.714,19.713 z"
          inkscape:connector-curvature="0"
          style="fill:#ffffff" />
      <path
          id="path39894"
          d="m 89.22,36.559 c 0,10.885 -8.827,19.713 -19.714,19.713 -10.886,0 -19.712,-8.828 -19.712,-19.713 0,-10.885 8.827,-19.713 19.712,-19.713 10.888,0 19.714,8.827 19.714,19.713 z"
          inkscape:connector-curvature="0"
          style="fill:#ffffff" />
      <path
          id="path39896"
          d="m 20.432,36.559 c 0,10.885 -8.827,19.713 -19.714,19.713 -10.886,0 -19.712,-8.828 -19.712,-19.713 0,-10.885 8.827,-19.713 19.712,-19.713 10.887,0 19.714,8.827 19.714,19.713 z"
          inkscape:connector-curvature="0"
          style="fill:#ffffff" />
      <g
          enable-background="new    "
          id="g13">
        <path
            d="m 239.544,-14.812 35.324,70.651 h -29.889 l -34.336,-68.426 h -39.029 v 68.426 h -25.443 v -172.923 h 75.835 c 30.137,0 55.579,16.058 55.579,51.63 0,27.668 -14.573,44.712 -38.041,50.642 z m -17.538,-77.816 h -50.391 v 55.583 h 50.391 c 17.292,0 29.396,-8.894 29.396,-27.668 -10e-4,-18.034 -11.858,-27.915 -29.396,-27.915 z"
            id="path11"
            inkscape:connector-curvature="0"
            style="fill:#ffffff" />
      </g>
      <g
          enable-background="new    "
          id="g17">
        <path
            d="m 382.576,58.558 c -44.71,0 -73.118,-36.809 -73.118,-89.18 0,-52.371 28.408,-89.179 73.118,-89.179 44.958,0 73.365,36.808 73.365,89.179 0,52.371 -28.407,89.18 -73.365,89.18 z m 0,-152.421 c -30.136,0 -46.686,24.456 -46.686,63.241 0,38.785 16.55,63.241 46.686,63.241 30.385,0 46.934,-24.456 46.934,-63.241 0,-38.785 -16.55,-63.241 -46.934,-63.241 z"
            id="path15"
            inkscape:connector-curvature="0"
            style="fill:#ffffff" />
      </g>
      <g
          enable-background="new    "
          id="g21">
        <path
            d="m 545.124,58.558 c -25.198,0 -46.934,-10.87 -61.51,-27.915 l 18.528,-18.035 c 11.61,12.6 28.653,20.505 44.956,20.505 24.207,0 35.818,-8.4 35.818,-25.198 0,-13.34 -10.126,-20.01 -39.03,-28.657 -36.558,-10.868 -54.095,-20.008 -54.095,-50.887 0,-29.891 25.195,-48.172 57.06,-48.172 23.467,0 41.251,8.646 56.567,23.468 l -18.277,18.528 c -10.87,-11.116 -23.22,-16.551 -40.264,-16.551 -20.259,0 -28.904,9.881 -28.904,21.492 0,12.105 7.905,18.034 37.796,26.926 34.087,10.376 55.333,21.245 55.333,52.124 -10e-4,31.127 -19.762,52.372 -63.978,52.372 z"
            id="path19"
            inkscape:connector-curvature="0"
            style="fill:#ffffff" />
      </g>
    </g>
    <g id="g30">
      <g id="g28">
        <path
            d="m 411.697,11.868 h -3.151 v 9.219 h -1.621 v -9.219 h -3.151 v -1.591 h 7.923 z"
            id="path24"
            inkscape:connector-curvature="0"
            style="fill:#ffffff" />
        <path
            d="m 423.5,21.087 h -1.591 v -5.714 c 0,-0.649 0.015,-1.591 0.03,-1.899 -0.123,0.309 -0.433,1.081 -0.694,1.699 l -2.625,6.084 -2.594,-6.084 c -0.263,-0.618 -0.572,-1.39 -0.695,-1.699 0.015,0.309 0.03,1.251 0.03,1.899 v 5.714 h -1.528 v -10.81 h 1.667 l 2.424,5.76 c 0.263,0.618 0.602,1.405 0.742,1.853 0.153,-0.448 0.463,-1.22 0.726,-1.853 l 2.378,-5.76 h 1.73 z"
            id="path26"
            inkscape:connector-curvature="0"
            style="fill:#ffffff" />
      </g>
    </g>
  </g>
</svg>
