<?xml version="1.0" encoding="UTF-8"?>
<svg id="cadquery_logo" width="26.731mm" height="24.376mm" version="1.1" viewBox="0 0 94.717 86.37" xmlns="http://www.w3.org/2000/svg">
  <title>CadQuery logo</title>
  <g id="layer1" transform="translate(-284.07 -477.75)">
    <path id="path1" d="m285.57 479.25h91.717v83.37h-91.717z" fill="#2980b9" fill-rule="evenodd" stroke="#2980b9" stroke-linejoin="round" stroke-width="3"/>
    <g id="text1" fill="#fff" stroke-width="1px">
      <path id="path2" d="m313.43 529.38q2.7344 0 4.4434-1.5039t1.7774-3.999h9.2627q-0.0342 3.7598-2.0508 6.9043-2.0166 3.1104-5.5371 4.8535-3.4863 1.709-7.7246 1.709-7.9297 0-12.51-5.0244-4.5801-5.0586-4.5801-13.945v-0.64941q0-8.5449 4.5459-13.638 4.5459-5.0928 12.476-5.0928 6.9385 0 11.108 3.9648 4.2041 3.9307 4.2725 10.493h-9.2627q-0.0684-2.8711-1.7774-4.6484-1.709-1.8115-4.5117-1.8115-3.4521 0-5.2295 2.5293-1.7432 2.4951-1.7432 8.1348v1.0254q0 5.708 1.7432 8.2031t5.2978 2.4951z"/>
      <path id="path3" d="m333.02 517.82q0-8.7158 3.8623-13.774 3.8965-5.0586 10.664-5.0586 5.9473 0 9.4678 4.5459l0.64942-3.8623h8.6816v51.201h-9.9121v-17.397q-3.418 3.8623-8.9551 3.8623-6.5967 0-10.527-5.127-3.9307-5.127-3.9307-14.39zm9.8779 0.71777q0 5.2978 1.8457 8.0664 1.8799 2.7686 5.2637 2.7686 4.5459 0 6.4258-3.623v-15.278q-1.8457-3.4863-6.3574-3.4863-3.418 0-5.2978 2.7686-1.8799 2.7686-1.8799 8.7842z"/>
    </g>
  </g>
</svg>
