<?xml version="1.0" encoding="UTF-8"?>
<svg id="ros_logo" width="416.04" height="102.1" enable-background="new 0 0 431.5 117.5" version="1.1" viewBox="0 0 416.04 102.1" xmlns="http://www.w3.org/2000/svg">
  <title>ROS logo</title>
  <g id="logo" transform="translate(-7.4582 -8.9071)">
    <g id="g1" transform="matrix(.55396 0 0 .57247 56.087 77.489)">
      <path id="path1" d="m-48.357-97.8c0 10.887-8.827 19.713-19.714 19.713-10.886 0-19.712-8.826-19.712-19.713 0-10.885 8.827-19.713 19.712-19.713 10.887 0 19.714 8.828 19.714 19.713z" fill="#fff"/>
      <path id="path2" d="m-48.357-30.621c0 10.887-8.827 19.713-19.714 19.713-10.886 0-19.712-8.826-19.712-19.713s8.827-19.713 19.712-19.713c10.887 0 19.714 8.826 19.714 19.713z" fill="#fff"/>
      <path id="path3" d="m-48.357 36.559c0 10.885-8.827 19.713-19.714 19.713-10.886 0-19.712-8.828-19.712-19.713s8.827-19.713 19.712-19.713c10.887 0 19.714 8.827 19.714 19.713z" fill="#fff"/>
      <path id="path4" d="m20.432-30.621c0 10.887-8.827 19.713-19.714 19.713-10.886 0-19.712-8.826-19.712-19.713s8.827-19.713 19.712-19.713c10.887 0 19.714 8.826 19.714 19.713z" fill="#fff"/>
      <path id="path5" d="m20.432-97.8c0 10.887-8.827 19.713-19.714 19.713-10.886 0-19.712-8.826-19.712-19.713 0-10.885 8.827-19.713 19.712-19.713 10.887 0 19.714 8.828 19.714 19.713z" fill="#fff"/>
      <path id="path6" d="m89.22-30.621c0 10.887-8.827 19.713-19.714 19.713-10.886 0-19.712-8.826-19.712-19.713s8.827-19.713 19.712-19.713c10.888 0 19.714 8.826 19.714 19.713z" fill="#fff"/>
      <path id="path7" d="m89.22-97.8c0 10.887-8.827 19.713-19.714 19.713-10.886 0-19.712-8.826-19.712-19.713 0-10.885 8.827-19.713 19.712-19.713 10.888 0 19.714 8.828 19.714 19.713z" fill="#fff"/>
      <path id="path8" d="m89.22 36.559c0 10.885-8.827 19.713-19.714 19.713-10.886 0-19.712-8.828-19.712-19.713s8.827-19.713 19.712-19.713c10.888 0 19.714 8.827 19.714 19.713z" fill="#fff"/>
      <path id="path9" d="m20.432 36.559c0 10.885-8.827 19.713-19.714 19.713-10.886 0-19.712-8.828-19.712-19.713s8.827-19.713 19.712-19.713c10.887 0 19.714 8.827 19.714 19.713z" fill="#fff"/>
      <g id="g2" enable-background="new">
        <path id="path10" d="m239.54-14.812 35.324 70.651h-29.889l-34.336-68.426h-39.029v68.426h-25.443v-172.92h75.835c30.137 0 55.579 16.058 55.579 51.63 0 27.668-14.573 44.712-38.041 50.642zm-17.538-77.816h-50.391v55.583h50.391c17.292 0 29.396-8.894 29.396-27.668-1e-3 -18.034-11.858-27.915-29.396-27.915z" fill="#fff"/>
      </g>
      <g id="g3" enable-background="new">
        <path id="path11" d="m382.58 58.558c-44.71 0-73.118-36.809-73.118-89.18s28.408-89.179 73.118-89.179c44.958 0 73.365 36.808 73.365 89.179s-28.407 89.18-73.365 89.18zm0-152.42c-30.136 0-46.686 24.456-46.686 63.241s16.55 63.241 46.686 63.241c30.385 0 46.934-24.456 46.934-63.241s-16.55-63.241-46.934-63.241z" fill="#fff"/>
      </g>
      <g id="g4" enable-background="new">
        <path id="path12" d="m545.12 58.558c-25.198 0-46.934-10.87-61.51-27.915l18.528-18.035c11.61 12.6 28.653 20.505 44.956 20.505 24.207 0 35.818-8.4 35.818-25.198 0-13.34-10.126-20.01-39.03-28.657-36.558-10.868-54.095-20.008-54.095-50.887 0-29.891 25.195-48.172 57.06-48.172 23.467 0 41.251 8.646 56.567 23.468l-18.277 18.528c-10.87-11.116-23.22-16.551-40.264-16.551-20.259 0-28.904 9.881-28.904 21.492 0 12.105 7.905 18.034 37.796 26.926 34.087 10.376 55.333 21.245 55.333 52.124-1e-3 31.127-19.762 52.372-63.978 52.372z" fill="#fff"/>
      </g>
    </g>
    <g id="g5">
      <g id="g6" fill="#fff">
        <path id="path13" d="m411.7 11.868h-3.151v9.219h-1.621v-9.219h-3.151v-1.591h7.923z"/>
        <path id="path14" d="m423.5 21.087h-1.591v-5.714c0-0.649 0.015-1.591 0.03-1.899-0.123 0.309-0.433 1.081-0.694 1.699l-2.625 6.084-2.594-6.084c-0.263-0.618-0.572-1.39-0.695-1.699 0.015 0.309 0.03 1.251 0.03 1.899v5.714h-1.528v-10.81h1.667l2.424 5.76c0.263 0.618 0.602 1.405 0.742 1.853 0.153-0.448 0.463-1.22 0.726-1.853l2.378-5.76h1.73z"/>
      </g>
    </g>
  </g>
</svg>
