<?xml version="1.0" encoding="UTF-8"?>
<svg id="Layer_1" baseProfile="tiny" version="1.2" viewBox="0 0 172.24 180.99" xml:space="preserve" xmlns="http://www.w3.org/2000/svg">
  <title>	Open Source Hardware logo</title>
  <path d="m152.34 57.604-16.439-3.057c-0.4-0.075-0.838-0.451-0.973-0.837l-5.039-11.756c-0.188-0.363-0.152-0.933 0.08-1.271l9.578-13.96c0.229-0.336 0.184-0.847-0.105-1.136l-11.963-11.963c-0.289-0.289-0.799-0.336-1.135-0.105l-14.205 9.748c-0.336 0.231-0.912 0.272-1.277 0.092l-11.396-4.665c-0.387-0.128-0.764-0.561-0.84-0.962l-3.165-17.003c-0.074-0.401-0.469-0.729-0.877-0.729h-16.92c-0.407 0-0.802 0.328-0.876 0.729l-3.164 17.003c-0.076 0.401-0.452 0.834-0.84 0.962l-11.397 4.665c-0.366 0.18-0.942 0.139-1.277-0.092l-14.204-9.748c-0.337-0.231-0.848-0.184-1.136 0.105l-11.964 11.963c-0.288 0.289-0.336 0.8-0.105 1.136l9.579 13.96c0.23 0.338 0.266 0.908 0.079 1.271l-5.04 11.756c-0.134 0.386-0.571 0.762-0.973 0.837l-16.438 3.057c-0.402 0.076-0.729 0.47-0.729 0.878l1e-3 16.919c0 0.408 0.328 0.805 0.729 0.878l16.035 2.984c0.401 0.073 0.83 0.454 0.952 0.843l5.006 12.505c0.179 0.367 0.137 0.941-0.095 1.277l-9.108 13.273c-0.23 0.336-0.183 0.848 0.105 1.137l11.965 11.963c0.288 0.287 0.799 0.334 1.136 0.105l13.038-8.949c0.336-0.23 0.899-0.248 1.25-0.043l5.75 3.07c0.364 0.186 0.789 0.029 0.945-0.348l11.856-28.647c0.157-0.377 0-0.858-0.348-1.071l-1.439-0.881c-0.266-0.162-0.627-0.441-0.91-0.697-5.191-3.324-8.635-9.139-8.635-15.761 0-10.334 8.378-18.711 18.711-18.711s18.71 8.377 18.71 18.711c0 6.622-3.443 12.437-8.635 15.761-0.281 0.256-0.643 0.535-0.908 0.697l-1.439 0.881c-0.346 0.213-0.504 0.694-0.348 1.071l11.855 28.648c0.156 0.377 0.58 0.533 0.945 0.348l5.75-3.07c0.352-0.205 0.914-0.188 1.25 0.043l13.039 8.949c0.336 0.229 0.848 0.182 1.135-0.105l11.965-11.963c0.289-0.289 0.336-0.801 0.105-1.137l-9.109-13.273c-0.23-0.336-0.273-0.91-0.094-1.277l5.006-12.505c0.123-0.389 0.549-0.77 0.951-0.843l16.035-2.984c0.4-0.073 0.729-0.47 0.729-0.878l2e-3 -16.919c1e-3 -0.409-0.327-0.803-0.727-0.879" fill="#0099B0"/>
  <path d="m45.597 180.78h3.613v-12.254c0-4.426-3.046-5.914-7.473-5.914-2.692 0-4.675 0.707-6.056 2.621l2.833 2.16c0.637-1.027 1.523-1.383 3.4-1.383 2.585 0 3.683 0.604 3.683 2.303v1.877h-4.994c-3.86 0-5.843 2.445-5.843 5.313 0 3.117 2.337 5.49 6.339 5.49 2.444 0 3.684-0.566 4.427-1.807h0.071v1.594zm0-6.305c0 2.799-1.027 3.117-4.037 3.117-2.444 0-3.401-1.063-3.401-2.266 0-1.311 0.992-2.162 3.118-2.162h4.32v1.311z" fill="#0099B0" fill-rule="evenodd"/>
  <path d="m53.178 180.78h3.612v-10.803c0-2.619 1.736-3.754 3.507-3.754 0.921 0 1.523 0.248 2.373 0.887l2.62-3.117c-1.098-0.85-2.301-1.381-3.754-1.381-1.912 0-3.542 0.709-4.675 2.125h-0.071v-1.912h-3.612v17.955z" fill="#0099B0" fill-rule="evenodd"/>
  <path d="m76.095 180.78h3.612v-25.217h-3.612v9.174c-1.346-1.275-2.798-2.125-4.64-2.125-2.196 0-3.789 0.99-4.816 2.338-0.992 1.273-1.275 2.441-1.275 6.836 0 4.426 0.283 5.594 1.275 6.869 1.027 1.346 2.62 2.338 4.816 2.338 1.842 0 3.507-0.852 4.64-2.09v1.877zm-3.542-14.557c3.365 0 3.542 2.977 3.542 5.563 0 2.621-0.177 5.594-3.542 5.594-3.4 0-3.577-2.797-3.577-5.594 0-2.764 0.177-5.563 3.577-5.563" fill="#0099B0" fill-rule="evenodd"/>
  <polygon points="98.143 180.78 101.33 180.78 107.07 162.83 103.24 162.83 99.809 175.4 99.736 175.4 95.664 162.83 93.043 162.83 88.971 175.4 88.9 175.4 85.464 162.83 81.64 162.83 87.377 180.78 90.564 180.78 94.318 168.21 94.389 168.21" fill="#0099B0" fill-rule="evenodd"/>
  <path d="m118.19 180.78h3.613v-12.254c0-4.426-3.047-5.914-7.473-5.914-2.691 0-4.676 0.707-6.057 2.621l2.834 2.16c0.637-1.027 1.521-1.383 3.398-1.383 2.586 0 3.684 0.604 3.684 2.303v1.877h-4.994c-3.859 0-5.844 2.445-5.844 5.313 0 3.117 2.338 5.49 6.34 5.49 2.443 0 3.684-0.566 4.428-1.807h0.07v1.594zm0-6.305c0 2.799-1.027 3.117-4.037 3.117-2.443 0-3.4-1.063-3.4-2.266 0-1.311 0.992-2.162 3.117-2.162h4.32v1.311z" fill="#0099B0" fill-rule="evenodd"/>
  <path d="m125.77 180.78h3.611v-10.803c0-2.619 1.734-3.754 3.506-3.754 0.922 0 1.523 0.248 2.373 0.887l2.621-3.117c-1.098-0.85-2.303-1.381-3.754-1.381-1.912 0-3.541 0.709-4.674 2.125h-0.072v-1.912h-3.611v17.955z" fill="#0099B0" fill-rule="evenodd"/>
  <path d="m152.75 173.17v-2.977c0-4.639-3.434-7.578-7.4-7.578-3.471 0-7.402 2.266-7.402 9.242 0 7.367 4.285 9.139 7.969 9.139 2.408 0 4.709-0.85 6.48-2.904l-2.621-2.232c-1.063 1.1-2.551 1.736-3.93 1.736-2.48 0-4.285-1.488-4.285-4.426h11.189zm-11.189-2.976c0.07-2.727 1.664-4.18 3.789-4.18s3.684 1.453 3.789 4.18h-7.578z" fill="#0099B0" fill-rule="evenodd"/>
  <path d="m0 143.42c0 3.895 0.566 5.383 1.947 6.906 0.992 1.098 2.657 2.301 5.455 2.301 2.797 0 4.462-1.203 5.454-2.301 1.381-1.523 1.948-3.012 1.948-6.906 0-3.861-0.567-5.348-1.948-6.871-0.992-1.098-2.657-2.303-5.454-2.303-2.798 0-4.463 1.205-5.455 2.303-1.381 1.524-1.947 3.01-1.947 6.871m11.191 0.035c0 2.586-0.212 3.293-0.885 4.25-0.532 0.744-1.665 1.311-2.904 1.311-1.24 0-2.373-0.566-2.904-1.311-0.673-0.957-0.886-1.664-0.886-4.285 0-2.586 0.213-3.295 0.886-4.25 0.531-0.744 1.664-1.311 2.904-1.311 1.239 0 2.372 0.566 2.904 1.311 0.673 0.955 0.885 1.664 0.885 4.285" fill="#0099B0" fill-rule="evenodd"/>
  <path d="m49.469 144.81v-2.975c0-4.641-3.435-7.58-7.401-7.58-3.472 0-7.402 2.268-7.402 9.244 0 7.365 4.285 9.137 7.968 9.137 2.409 0 4.71-0.85 6.481-2.904l-2.621-2.23c-1.062 1.098-2.549 1.736-3.93 1.736-2.48 0-4.286-1.488-4.286-4.428h11.191zm-11.191-2.974c0.071-2.729 1.665-4.18 3.79-4.18s3.683 1.451 3.789 4.18h-7.579z" fill="#0099B0" fill-rule="evenodd"/>
  <path d="m52.552 152.42h3.612v-10.693c0-2.445 1.523-3.861 3.577-3.861 2.019 0 3.542 1.416 3.542 3.861v10.693h3.612v-11.934c0-4.074-3.187-6.234-5.985-6.234-1.912 0-3.542 0.709-4.674 2.125h-0.072v-1.912h-3.612v17.955z" fill="#0099B0" fill-rule="evenodd"/>
  <path d="m76.662 149.41c2.302 2.16 4.994 3.223 7.898 3.223 4.179 0 7.437-2.018 7.437-5.525 0-2.867-1.486-5.135-5.206-5.383l-2.975-0.211c-1.806-0.143-2.372-0.922-2.372-1.701 0-1.238 0.779-2.16 3.08-2.16 1.949 0 3.402 0.674 4.818 1.664l2.23-2.619c-1.771-1.488-3.895-2.445-7.049-2.445-3.789 0-6.693 1.877-6.693 5.525 0 3.08 2.196 4.852 5.17 5.1l3.188 0.283c1.241 0.105 2.196 0.496 2.196 1.771 0 1.523-1.489 2.301-3.542 2.301-2.408 0-4.108-0.777-5.666-2.301l-2.514 2.478z" fill="#0099B0" fill-rule="evenodd"/>
  <path d="m94.051 143.42c0 3.895 0.568 5.383 1.949 6.906 0.992 1.098 2.656 2.301 5.453 2.301 2.799 0 4.463-1.203 5.455-2.301 1.381-1.523 1.947-3.012 1.947-6.906 0-3.861-0.566-5.348-1.947-6.871-0.992-1.098-2.656-2.303-5.455-2.303-2.797 0-4.461 1.205-5.453 2.303-1.381 1.524-1.949 3.01-1.949 6.871m11.191 0.035c0 2.586-0.211 3.293-0.885 4.25-0.531 0.744-1.664 1.311-2.904 1.311-1.238 0-2.373-0.566-2.902-1.311-0.674-0.957-0.887-1.664-0.887-4.285 0-2.586 0.213-3.295 0.887-4.25 0.529-0.744 1.664-1.311 2.902-1.311 1.24 0 2.373 0.566 2.904 1.311 0.674 0.955 0.885 1.664 0.885 4.285" fill="#0099B0" fill-rule="evenodd"/>
  <path d="m111.94 146.4c0 4.072 3.188 6.232 6.021 6.232 1.875 0 3.506-0.709 4.639-2.125h0.07v1.914h3.611v-17.957h-3.611v10.695c0 2.443-1.523 3.861-3.543 3.861-2.053 0-3.576-1.418-3.576-3.861v-10.695h-3.611v11.936z" fill="#0099B0" fill-rule="evenodd"/>
  <path d="m130.24 152.42h3.613v-10.801c0-2.621 1.734-3.754 3.506-3.754 0.922 0 1.523 0.248 2.373 0.885l2.621-3.117c-1.1-0.85-2.301-1.381-3.754-1.381-1.912 0-3.543 0.709-4.676 2.125h-0.07v-1.912h-3.613v17.955z" fill="#0099B0" fill-rule="evenodd"/>
  <path d="m153.86 147.14c-0.885 1.098-2.16 1.877-3.646 1.877-2.939 0-4.676-1.666-4.676-5.563 0-3.93 1.736-5.594 4.676-5.594 1.486 0 2.762 0.779 3.646 1.877l2.656-2.373c-1.557-1.807-3.719-3.117-6.445-3.117-4.143 0-8.145 2.621-8.145 9.207 0 6.555 4.002 9.174 8.145 9.174 2.727 0 4.889-1.311 6.445-3.115l-2.656-2.373z" fill="#0099B0" fill-rule="evenodd"/>
  <path d="m172.24 144.81v-2.975c0-4.641-3.438-7.58-7.402-7.58-3.473 0-7.402 2.268-7.402 9.244 0 7.365 4.285 9.137 7.969 9.137 2.408 0 4.711-0.85 6.48-2.904l-2.621-2.23c-1.063 1.098-2.549 1.736-3.93 1.736-2.48 0-4.285-1.488-4.285-4.428h11.191zm-11.191-2.974c0.07-2.729 1.664-4.18 3.789-4.18s3.682 1.451 3.789 4.18h-7.578z" fill="#0099B0" fill-rule="evenodd"/>
  <path d="m25.041 149.02c3.4 0 3.577-2.799 3.577-5.561 0-2.799-0.177-5.596-3.577-5.596-3.364 0-3.542 2.975-3.542 5.596 0 2.586 0.177 5.561 3.542 5.561m-7.168 31.76v-46.316h3.626v1.877c1.134-1.24 2.798-2.09 4.64-2.09 2.195 0 3.79 0.992 4.817 2.338 0.991 1.275 1.274 2.443 1.274 6.871 0 4.391-0.283 5.561-1.274 6.834-1.027 1.346-2.622 2.338-4.817 2.338-1.842 0-3.294-0.85-4.64-2.125l-0.013 14.23c1.204-1.416 2.833-2.125 4.745-2.125 2.798 0 5.985 2.16 5.985 6.232v11.936h-3.612v-10.695c0-2.445-1.523-3.861-3.542-3.861-2.054 0-3.576 1.416-3.576 3.861v10.695h-3.613z" fill="#0099B0"/>
</svg>
